<svg width="100" height="100" viewBox="0 0 100 100" fill="none" xmlns="http://www.w3.org/2000/svg">
<rect width="100" height="100" rx="40" fill="#EB514E"/>
<path fill-rule="evenodd" clip-rule="evenodd" d="M26.2819 69.6682C21.7816 65.5036 18.9085 59.6487 20.3948 52.1C21.8608 44.5515 25.0587 38.3884 29.6725 33.5415C34.2965 28.684 40.3363 25.1429 47.1514 24.2299C53.9765 23.3273 61.5459 25.0637 68.0038 29.7659C74.4513 34.4785 79.7769 42.1676 79.9925 50.2466C80.2182 58.3151 75.3438 66.8048 68.7726 71.1143C65.501 73.2663 61.801 74.3809 57.857 75.004C57.7099 73.4586 57.5381 71.9221 57.0933 70.4836C55.919 66.6166 57.4847 65.4915 60.6811 65.4915C61.5944 65.4915 62.5077 65.4213 63.3557 65.2806C68.3787 64.2962 69.4223 61.9057 66.8783 57.1245C65.9369 55.3549 64.7532 53.7515 63.5686 52.147C61.2233 48.9703 58.8747 45.7892 58.398 41.3045C58.2325 39.7594 56.6225 38.5156 55.1828 37.4035C54.9191 37.1998 54.6611 37.0005 54.4188 36.8046C51.6137 34.6249 50.6429 36.8732 51.1571 38.9139C52.8394 39.1043 55.995 43.0031 57.0933 45.2341C57.1737 45.3974 57.2493 45.5493 57.3201 45.6914C58.2161 47.4913 58.3359 47.732 57.55 49.8825C56.0437 48.6197 55.6269 47.7489 54.8509 46.1277C54.7195 45.8532 54.5778 45.5572 54.4188 45.2341C53.4033 44.249 52.7215 43.1525 52.0363 42.0504C51.4009 41.0284 50.7626 40.0017 49.8524 39.0545C46.4604 37.2967 45.4166 38.8436 45.4166 42.4998C45.4166 45.1716 46.1342 47.5622 47.3736 50.445C40.4588 48.8278 35.0446 50.7262 31.1306 56.562C30.4953 57.5207 29.6675 57.7087 28.8436 57.8959C28.3985 57.997 27.9546 58.0979 27.5428 58.3198C24.6725 60.0072 23.0417 63.1713 25.4553 65.351C27.3913 67.1082 28.6022 69.3419 29.7971 71.5461C30.0128 71.9439 30.2279 72.3407 30.4466 72.7336C28.9196 71.8593 27.5364 70.829 26.2819 69.6682ZM48.4013 75.8175C49.352 75.7747 50.2975 75.7283 51.2357 75.6719C50.9765 73.6115 50.5891 71.6293 47.5041 71.6789C47.5691 71.4687 47.6341 71.2411 47.6991 71.0135C47.7645 70.7841 47.83 70.5547 47.8955 70.3431C47.9298 69.9543 47.9687 69.5704 48.0073 69.1888C48.1154 68.1211 48.2216 67.0715 48.2216 65.9837C48.0911 59.8667 42.1549 55.9996 37.3277 58.812C45.4818 61.2026 46.069 61.765 47.0475 68.1634C46.069 70.2727 44.9599 72.2414 42.9378 73.9289C46.0386 74.2107 47.3636 74.3312 48.0033 75.0562C48.1811 75.2578 48.3059 75.5061 48.4013 75.8175Z" fill="white"/>
</svg>
